<?xml version="1.0" encoding="utf-8"?>
<!-- Generator: Adobe Illustrator 18.0.0, SVG Export Plug-In . SVG Version: 6.00 Build 0)  -->
<!DOCTYPE svg PUBLIC "-//W3C//DTD SVG 1.1//EN" "http://www.w3.org/Graphics/SVG/1.1/DTD/svg11.dtd">
<svg version="1.1" id="Layer_1" xmlns="http://www.w3.org/2000/svg" xmlns:xlink="http://www.w3.org/1999/xlink" x="0px" y="0px"
	 width="30px" height="30px" viewBox="0 0 30 30" enable-background="new 0 0 30 30" xml:space="preserve">
<g>
	<path fill="#262626" d="M15,17.2c4.3,0,7.8-3.5,7.8-7.8c0-4.2-3.6-7.8-7.8-7.8c-4.2,0-7.8,3.6-7.8,7.8S10.8,17.2,15,17.2z M15,2.8
		c3.6,0,6.6,2.9,6.6,6.6S18.6,16,15,16c-3.6,0-6.6-2.9-6.6-6.6S11.4,2.8,15,2.8z"/>
	<path fill="#262626" d="M12.8,10.5l-0.3,1.9c0,0.2,0.1,0.5,0.2,0.6c0.1,0.1,0.2,0.1,0.3,0.1c0.1,0,0.2,0,0.3-0.1l1.6-0.9l1.6,0.8
		c0,0,0.4,0.2,0.6,0.1c0.3-0.1,0.3-0.4,0.3-0.6l-0.3-1.8l1.4-1.4c0.1-0.1,0.2-0.4,0.1-0.6l0,0c0,0,0,0-0.1-0.1
		c-0.1-0.1-0.2-0.3-0.4-0.3c0,0,0,0,0,0l-1.8-0.3l-0.8-1.8C15.5,6,15.3,5.9,15,5.9c-0.2,0-0.4,0.1-0.6,0.3l-0.9,1.7l-1.8,0.3
		c-0.3,0-0.4,0.2-0.5,0.4c-0.1,0.2,0,0.5,0.1,0.6L12.8,10.5z M15.9,10.4l0.2,0.9l-0.9-0.5c-0.1-0.1-0.4-0.1-0.5,0l-0.9,0.5l0.2-0.9
		c0.1-0.2,0-0.4-0.1-0.5l-0.7-0.7L14.1,9l0,0c0.2-0.1,0.3-0.2,0.4-0.3L15,7.8l0.3,0.8C15.4,8.8,15.5,9,15.8,9c0,0,0,0,0,0l1,0.2
		L16,9.9C15.9,10,15.9,10.2,15.9,10.4z"/>
	<path fill="#262626" d="M27,19.9H3c-0.4,0-0.6,0.3-0.6,0.6s0.3,0.6,0.6,0.6h24c0.4,0,0.6-0.3,0.6-0.6S27.4,19.9,27,19.9z"/>
	<path fill="#262626" d="M23.6,22.8H6.2c-0.4,0-0.6,0.3-0.6,0.6S5.8,24,6.2,24h17.5c0.2,0,0.4-0.1,0.5-0.3c0.1-0.1,0.1-0.3,0-0.4
		C24.2,23,24,22.8,23.6,22.8z"/>
	<path fill="#262626" d="M20.5,25.6H9.4c-0.4,0-0.6,0.3-0.6,0.6s0.3,0.6,0.6,0.6h11.1c0.4,0,0.6-0.3,0.6-0.6S20.9,25.6,20.5,25.6z"
		/>
</g>
</svg>
